<?plantuml 1.2026.2?><svg xmlns="http://www.w3.org/2000/svg" xmlns:xlink="http://www.w3.org/1999/xlink" contentStyleType="text/css" data-diagram-type="DESCRIPTION" height="681px" preserveAspectRatio="none" style="width:743px;height:681px;background:#FFFFFF;" version="1.1" viewBox="0 0 743 681" width="743px" zoomAndPan="magnify"><title>Bi&#7875;u &#273;&#7891; Use Case T&#7893;ng Qu&#225;t &#8212; EHC AI Helpdesk MVP</title><defs/><g><g class="title" data-source-line="8"><text fill="#000000" font-family="sans-serif" font-size="14" font-weight="bold" lengthAdjust="spacing" textLength="417.04" x="156.075" y="22.9951">Bi&#7875;u &#273;&#7891; Use Case T&#7893;ng Qu&#225;t &#8212; EHC AI Helpdesk MVP</text></g><!--cluster EHC AI Helpdesk MVP--><g class="cluster" data-qualified-name="EHC AI Helpdesk MVP" data-source-line="22" id="ent0010"><rect fill="none" height="631" rx="2.5" ry="2.5" style="stroke:#181818;stroke-width:1;" width="240.42" x="496.77" y="44.2969"/><text fill="#000000" font-family="sans-serif" font-size="14" font-weight="bold" lengthAdjust="spacing" textLength="170.4404" x="531.7598" y="59.292">EHC AI Helpdesk MVP</text></g><!--entity UC01--><g class="entity" data-qualified-name="EHC AI Helpdesk MVP.UC01" data-source-line="23" id="ent0011"><ellipse cx="616.9848" cy="378.2983" fill="#E8F4FD" rx="84.8248" ry="23.5814" style="stroke:#2980B9;stroke-width:0.5;"/><text fill="#000000" font-family="sans-serif" font-size="14" lengthAdjust="spacing" textLength="37.8369" x="598.0664" y="371.0714">UC01</text><text fill="#000000" font-family="sans-serif" font-size="14" lengthAdjust="spacing" textLength="129.582" x="552.1938" y="387.3683">G&#7917;i y&#234;u c&#7847;u h&#7895; tr&#7907;</text></g><!--entity UC02--><g class="entity" data-qualified-name="EHC AI Helpdesk MVP.UC02" data-source-line="24" id="ent0012"><ellipse cx="616.9762" cy="202.2939" fill="#E8F4FD" rx="97.6662" ry="23.527" style="stroke:#2980B9;stroke-width:0.5;"/><text fill="#000000" font-family="sans-serif" font-size="14" lengthAdjust="spacing" textLength="37.8369" x="598.0578" y="194.9778">UC02</text><text fill="#000000" font-family="sans-serif" font-size="14" lengthAdjust="spacing" textLength="150.3154" x="541.8185" y="211.2747">G&#7917;i &#7843;nh l&#7895;i / m&#244; t&#7843; l&#7895;i</text></g><!--entity UC03--><g class="entity" data-qualified-name="EHC AI Helpdesk MVP.UC03" data-source-line="25" id="ent0013"><ellipse cx="616.9781" cy="103.2967" fill="#E8F4FD" rx="99.8881" ry="23.5198" style="stroke:#2980B9;stroke-width:0.5;"/><text fill="#000000" font-family="sans-serif" font-size="14" lengthAdjust="spacing" textLength="37.8369" x="598.0596" y="95.9687">UC03</text><text fill="#000000" font-family="sans-serif" font-size="14" lengthAdjust="spacing" textLength="153.8975" x="540.0293" y="112.2656">Tra c&#7913;u tri th&#7913;c h&#7895; tr&#7907;</text></g><!--entity UC04--><g class="entity" data-qualified-name="EHC AI Helpdesk MVP.UC04" data-source-line="26" id="ent0014"><ellipse cx="616.9782" cy="290.2958" fill="#E8F4FD" rx="63.4382" ry="29.5089" style="stroke:#2980B9;stroke-width:0.5;"/><text fill="#000000" font-family="sans-serif" font-size="14" lengthAdjust="spacing" textLength="37.8369" x="598.0597" y="277.9159">UC04</text><text fill="#000000" font-family="sans-serif" font-size="14" lengthAdjust="spacing" textLength="111.4668" x="561.2448" y="294.2128">Nh&#7853;n c&#226;u tr&#7843; l&#7901;i</text><text fill="#000000" font-family="sans-serif" font-size="14" lengthAdjust="spacing" textLength="54.0244" x="589.966" y="310.5097">t&#7921; &#273;&#7897;ng</text></g><!--entity UC05--><g class="entity" data-qualified-name="EHC AI Helpdesk MVP.UC05" data-source-line="27" id="ent0015"><ellipse cx="616.9836" cy="460.2957" fill="#E8F4FD" rx="94.3436" ry="23.5388" style="stroke:#2980B9;stroke-width:0.5;"/><text fill="#000000" font-family="sans-serif" font-size="14" lengthAdjust="spacing" textLength="37.8369" x="598.0651" y="452.9991">UC05</text><text fill="#000000" font-family="sans-serif" font-size="14" lengthAdjust="spacing" textLength="144.9561" x="544.5056" y="469.296">Xem ticket li&#234;n quan</text></g><!--entity UC06--><g class="entity" data-qualified-name="EHC AI Helpdesk MVP.UC06" data-source-line="28" id="ent0016"><ellipse cx="616.9809" cy="542.294" fill="#E8F4FD" rx="104.2109" ry="23.5071" style="stroke:#2980B9;stroke-width:0.5;"/><text fill="#000000" font-family="sans-serif" font-size="14" lengthAdjust="spacing" textLength="37.8369" x="598.0625" y="534.9452">UC06</text><text fill="#000000" font-family="sans-serif" font-size="14" lengthAdjust="spacing" textLength="160.8633" x="536.5493" y="551.2421">Qu&#7843;n l&#253; d&#7919; li&#7879;u tri th&#7913;c</text></g><!--entity UC07--><g class="entity" data-qualified-name="EHC AI Helpdesk MVP.UC07" data-source-line="29" id="ent0017"><ellipse cx="616.9763" cy="630.2951" fill="#E8F4FD" rx="79.2463" ry="29.0082" style="stroke:#2980B9;stroke-width:0.5;"/><text fill="#000000" font-family="sans-serif" font-size="14" lengthAdjust="spacing" textLength="37.8369" x="598.0579" y="617.9152">UC07</text><text fill="#000000" font-family="sans-serif" font-size="14" lengthAdjust="spacing" textLength="143.3291" x="545.3118" y="634.212">Gi&#225;m s&#225;t v&#224; qu&#7843;n tr&#7883;</text><text fill="#000000" font-family="sans-serif" font-size="14" lengthAdjust="spacing" textLength="62.624" x="585.6643" y="650.5089">h&#7879; th&#7889;ng</text></g><!--entity BaseUser--><g class="entity" data-qualified-name="BaseUser" data-source-line="12" id="ent0002"><ellipse cx="228.9057" cy="354.1469" fill="#F1F1F1" rx="16" ry="16" style="stroke:#2C3E50;stroke-width:0.5;"/><path d="M228.9057,374.1469 C232.9057,374.1469 235.9057,374.1469 239.9057,370.1469 C247.9057,370.1469 255.9057,378.1469 255.9057,386.1469 L255.9057,390.1469 C255.9057,394.1469 251.9057,398.1469 247.9057,398.1469 L209.9057,398.1469 C205.9057,398.1469 201.9057,394.1469 201.9057,390.1469 L201.9057,386.1469 C201.9057,378.1469 209.9057,370.1469 217.9057,370.1469 C221.9057,374.1469 224.9057,374.1469 228.9057,374.1469" fill="#F1F1F1" style="stroke:#2C3E50;stroke-width:0.5;"/><text fill="#000000" font-family="sans-serif" font-size="14" lengthAdjust="spacing" textLength="147.7314" x="155.04" y="411.642">Ng&#432;&#7901;i d&#249;ng h&#7879; th&#7889;ng</text></g><!--entity ITUser--><g class="entity" data-qualified-name="ITUser" data-source-line="13" id="ent0003"><ellipse cx="50.02" cy="298.1469" fill="#F1F1F1" rx="16" ry="16" style="stroke:#2C3E50;stroke-width:0.5;"/><path d="M50.02,318.1469 C54.02,318.1469 57.02,318.1469 61.02,314.1469 C69.02,314.1469 77.02,322.1469 77.02,330.1469 L77.02,334.1469 C77.02,338.1469 73.02,342.1469 69.02,342.1469 L31.02,342.1469 C27.02,342.1469 23.02,338.1469 23.02,334.1469 L23.02,330.1469 C23.02,322.1469 31.02,314.1469 39.02,314.1469 C43.02,318.1469 46.02,318.1469 50.02,318.1469" fill="#F1F1F1" style="stroke:#2C3E50;stroke-width:0.5;"/><text fill="#000000" font-family="sans-serif" font-size="14" lengthAdjust="spacing" textLength="88.04" x="6" y="355.642">Nh&#226;n vi&#234;n IT</text></g><!--entity Doctor--><g class="entity" data-qualified-name="Doctor" data-source-line="14" id="ent0004"><ellipse cx="50.02" cy="410.1469" fill="#F1F1F1" rx="16" ry="16" style="stroke:#2C3E50;stroke-width:0.5;"/><path d="M50.02,430.1469 C54.02,430.1469 57.02,430.1469 61.02,426.1469 C69.02,426.1469 77.02,434.1469 77.02,442.1469 L77.02,446.1469 C77.02,450.1469 73.02,454.1469 69.02,454.1469 L31.02,454.1469 C27.02,454.1469 23.02,450.1469 23.02,446.1469 L23.02,442.1469 C23.02,434.1469 31.02,426.1469 39.02,426.1469 C43.02,430.1469 46.02,430.1469 50.02,430.1469" fill="#F1F1F1" style="stroke:#2C3E50;stroke-width:0.5;"/><text fill="#000000" font-family="sans-serif" font-size="14" lengthAdjust="spacing" textLength="41.5146" x="29.2627" y="467.642">B&#225;c s&#297;</text></g><!--entity Admin--><g class="entity" data-qualified-name="Admin" data-source-line="15" id="ent0005"><ellipse cx="228.9105" cy="599.1469" fill="#F1F1F1" rx="16" ry="16" style="stroke:#2C3E50;stroke-width:0.5;"/><path d="M228.9105,619.1469 C232.9105,619.1469 235.9105,619.1469 239.9105,615.1469 C247.9105,615.1469 255.9105,623.1469 255.9105,631.1469 L255.9105,635.1469 C255.9105,639.1469 251.9105,643.1469 247.9105,643.1469 L209.9105,643.1469 C205.9105,643.1469 201.9105,639.1469 201.9105,635.1469 L201.9105,631.1469 C201.9105,623.1469 209.9105,615.1469 217.9105,615.1469 C221.9105,619.1469 224.9105,619.1469 228.9105,619.1469" fill="#F1F1F1" style="stroke:#2C3E50;stroke-width:0.5;"/><text fill="#000000" font-family="sans-serif" font-size="14" lengthAdjust="spacing" textLength="91.041" x="183.39" y="656.642">Qu&#7843;n tr&#7883; vi&#234;n</text></g><!--entity Telegram--><g class="entity" data-qualified-name="Telegram" data-source-line="16" id="ent0006"><ellipse cx="228.9037" cy="236.1469" fill="#F1F1F1" rx="16" ry="16" style="stroke:#2C3E50;stroke-width:0.5;"/><path d="M228.9037,256.1469 C232.9037,256.1469 235.9037,256.1469 239.9037,252.1469 C247.9037,252.1469 255.9037,260.1469 255.9037,268.1469 L255.9037,272.1469 C255.9037,276.1469 251.9037,280.1469 247.9037,280.1469 L209.9037,280.1469 C205.9037,280.1469 201.9037,276.1469 201.9037,272.1469 L201.9037,268.1469 C201.9037,260.1469 209.9037,252.1469 217.9037,252.1469 C221.9037,256.1469 224.9037,256.1469 228.9037,256.1469" fill="#F1F1F1" style="stroke:#2C3E50;stroke-width:0.5;"/><text fill="#000000" font-family="sans-serif" font-size="14" lengthAdjust="spacing" textLength="66.5273" x="195.64" y="293.642">Telegram</text></g><!--entity Redmine--><g class="entity" data-qualified-name="Redmine" data-source-line="17" id="ent0007"><ellipse cx="228.9106" cy="484.1469" fill="#F1F1F1" rx="16" ry="16" style="stroke:#2C3E50;stroke-width:0.5;"/><path d="M228.9106,504.1469 C232.9106,504.1469 235.9106,504.1469 239.9106,500.1469 C247.9106,500.1469 255.9106,508.1469 255.9106,516.1469 L255.9106,520.1469 C255.9106,524.1469 251.9106,528.1469 247.9106,528.1469 L209.9106,528.1469 C205.9106,528.1469 201.9106,524.1469 201.9106,520.1469 L201.9106,516.1469 C201.9106,508.1469 209.9106,500.1469 217.9106,500.1469 C221.9106,504.1469 224.9106,504.1469 228.9106,504.1469" fill="#F1F1F1" style="stroke:#2C3E50;stroke-width:0.5;"/><text fill="#000000" font-family="sans-serif" font-size="14" lengthAdjust="spacing" textLength="62.2412" x="197.79" y="541.642">Redmine</text></g><!--link ITUser to BaseUser--><g class="link" data-entity-1="ent0003" data-entity-2="ent0002" data-link-type="extension" data-source-line="19" id="lnk8"><path d="M94.29,333.9969 C112.5,339.7569 117.0297,341.1933 137.5897,347.7033" fill="none" id="ITUser-to-BaseUser" style="stroke:#2C3E50;stroke-width:1;"/><polygon fill="none" points="154.75,353.1369,139.4009,341.9832,135.7785,353.4234,154.75,353.1369" style="stroke:#2C3E50;stroke-width:1;"/></g><!--link Doctor to BaseUser--><g class="link" data-entity-1="ent0004" data-entity-2="ent0002" data-link-type="extension" data-source-line="20" id="lnk9"><path d="M77.89,423.7869 C98.37,417.3069 110.4593,413.4793 137.6893,404.8593" fill="none" id="Doctor-to-BaseUser" style="stroke:#2C3E50;stroke-width:1;"/><polygon fill="none" points="154.85,399.4269,135.8785,399.1391,139.5001,410.5795,154.85,399.4269" style="stroke:#2C3E50;stroke-width:1;"/></g><!--link BaseUser to UC01--><g class="link" data-entity-1="ent0002" data-entity-2="ent0011" data-link-type="dependency" data-source-line="33" id="lnk18"><path d="M302.98,376.6769 C368.12,377.0169 457.4701,377.4761 525.7901,377.8261" fill="none" id="BaseUser-to-UC01" style="stroke:#2C3E50;stroke-width:1;"/><polygon fill="#2C3E50" points="531.79,377.8569,522.8106,373.8108,526.7901,377.8313,522.7696,381.8107,531.79,377.8569" style="stroke:#2C3E50;stroke-width:1;"/></g><!--link BaseUser to UC02--><g class="link" data-entity-1="ent0002" data-entity-2="ent0012" data-link-type="dependency" data-source-line="34" id="lnk19"><path d="M283.76,337.4469 C290.95,330.4069 297.6,322.6269 302.77,314.2969 C331.76,267.5869 289.44,228.1269 332.77,194.2969 C398.2,143.2169 494.7026,161.1689 556.7826,180.5489" fill="none" id="BaseUser-to-UC02" style="stroke:#2C3E50;stroke-width:1;"/><polygon fill="#2C3E50" points="562.51,182.3369,555.1109,175.8367,557.7372,180.8469,552.7269,183.4732,562.51,182.3369" style="stroke:#2C3E50;stroke-width:1;"/></g><!--link BaseUser to UC04--><g class="link" data-entity-1="ent0002" data-entity-2="ent0014" data-link-type="dependency" data-source-line="35" id="lnk20"><path d="M302.98,360.0169 C377.41,343.4369 485.4235,319.3813 553.3535,304.2513" fill="none" id="BaseUser-to-UC04" style="stroke:#2C3E50;stroke-width:1;"/><polygon fill="#2C3E50" points="559.21,302.9469,549.5557,300.9992,554.3296,304.0339,551.2949,308.8078,559.21,302.9469" style="stroke:#2C3E50;stroke-width:1;"/></g><!--link BaseUser to UC05--><g class="link" data-entity-1="ent0002" data-entity-2="ent0015" data-link-type="dependency" data-source-line="36" id="lnk21"><path d="M284.22,415.4169 C299.28,424.4469 316.09,432.9569 332.77,438.2969 C394.3,458.0069 461.0202,463.2568 517.3602,463.7268" fill="none" id="BaseUser-to-UC05" style="stroke:#2C3E50;stroke-width:1;"/><polygon fill="#2C3E50" points="523.36,463.7769,514.3937,459.7019,518.3602,463.7352,514.3269,467.7017,523.36,463.7769" style="stroke:#2C3E50;stroke-width:1;"/></g><!--link Admin to UC06--><g class="link" data-entity-1="ent0005" data-entity-2="ent0016" data-link-type="dependency" data-source-line="38" id="lnk22"><path d="M274.57,612.1569 C339.08,598.9569 453.3818,575.5695 532.5618,559.3695" fill="none" id="Admin-to-UC06" style="stroke:#2C3E50;stroke-width:1;"/><polygon fill="#2C3E50" points="538.44,558.1669,528.8209,556.0521,533.5415,559.1691,530.4244,563.8897,538.44,558.1669" style="stroke:#2C3E50;stroke-width:1;"/></g><!--link Admin to UC07--><g class="link" data-entity-1="ent0005" data-entity-2="ent0017" data-link-type="dependency" data-source-line="39" id="lnk23"><path d="M274.57,622.3369 C338.88,623.8369 452.5216,626.4867 531.7116,628.3367" fill="none" id="Admin-to-UC07" style="stroke:#2C3E50;stroke-width:1;"/><polygon fill="#2C3E50" points="537.71,628.4769,528.8059,624.2678,532.7114,628.3601,528.619,632.2656,537.71,628.4769" style="stroke:#2C3E50;stroke-width:1;"/></g><!--link Telegram to UC01--><g class="link" data-entity-1="ent0006" data-entity-2="ent0011" data-link-type="dependency" data-source-line="42" id="lnk24"><path d="M262.49,268.4269 C328.21,288.8469 471.6205,333.4256 553.6105,358.9156" fill="none" id="Telegram-to-UC01" style="stroke:#2C3E50;stroke-width:1;"/><polygon fill="#2C3E50" points="559.34,360.6969,551.9333,354.2053,554.5654,359.2125,549.5583,361.8447,559.34,360.6969" style="stroke:#2C3E50;stroke-width:1;"/></g><!--link Telegram to UC02--><g class="link" data-entity-1="ent0006" data-entity-2="ent0012" data-link-type="dependency" data-source-line="43" id="lnk25"><path d="M255.63,219.3069 C273.94,195.3269 300.89,166.6969 332.77,153.2969 C413.74,119.2769 511.7764,152.7172 568.5564,178.4872" fill="none" id="Telegram-to-UC02" style="stroke:#2C3E50;stroke-width:1;"/><polygon fill="#2C3E50" points="574.02,180.9669,567.4777,173.6049,569.467,178.9005,564.1714,180.8897,574.02,180.9669" style="stroke:#2C3E50;stroke-width:1;"/></g><!--link Telegram to UC04--><g class="link" data-entity-1="ent0006" data-entity-2="ent0014" data-link-type="dependency" data-source-line="44" id="lnk26"><path d="M262.49,260.9969 C326.84,266.3269 465.2105,277.801 548.1705,284.681" fill="none" id="Telegram-to-UC04" style="stroke:#2C3E50;stroke-width:1;"/><polygon fill="#2C3E50" points="554.15,285.1769,545.5114,280.4467,549.1671,284.7636,544.8502,288.4194,554.15,285.1769" style="stroke:#2C3E50;stroke-width:1;"/></g><!--link Redmine to UC05--><g class="link" data-entity-1="ent0007" data-entity-2="ent0015" data-link-type="dependency" data-source-line="45" id="lnk27"><path d="M260.45,503.3269 C307.72,498.6669 401.44,489.1369 480.77,479.2969 C498.3,477.1269 511.1273,475.4339 528.9473,472.9539" fill="none" id="Redmine-to-UC05" style="stroke:#2C3E50;stroke-width:1;"/><polygon fill="#2C3E50" points="534.89,472.1269,525.4245,469.4056,529.9377,472.8161,526.5273,477.3293,534.89,472.1269" style="stroke:#2C3E50;stroke-width:1;"/></g><!--link Redmine to UC06--><g class="link" data-entity-1="ent0007" data-entity-2="ent0016" data-link-type="dependency" data-source-line="46" id="lnk28"><path d="M260.46,510.9269 C280.89,513.9069 308.4,517.6969 332.77,520.2969 C393.58,526.7869 455.9446,531.7381 510.2546,535.5381" fill="none" id="Redmine-to-UC06" style="stroke:#2C3E50;stroke-width:1;"/><polygon fill="#2C3E50" points="516.24,535.9569,507.5411,531.3384,511.2522,535.6079,506.9828,539.3189,516.24,535.9569" style="stroke:#2C3E50;stroke-width:1;"/></g><!--link UC01 to UC03--><g class="link" data-entity-1="ent0011" data-entity-2="ent0013" data-link-type="dependency" data-source-line="49" id="lnk29"><path d="M547.57,364.3469 C527.43,358.1869 506.2,349.4869 488.77,337.2969 C436.51,300.7369 380.06,274.4769 409.31,217.7969 C436.12,165.8469 491.3769,138.161 540.3569,122.151" fill="none" id="UC01-to-UC03" style="stroke:#2C3E50;stroke-width:1;stroke-dasharray:7,7;"/><polygon fill="#2C3E50" points="546.06,120.2869,536.2626,119.2811,541.3074,121.8403,538.7482,126.8851,546.06,120.2869" style="stroke:#2C3E50;stroke-width:1;"/><text fill="#000000" font-family="sans-serif" font-size="13" lengthAdjust="spacing" textLength="63.0068" x="375.27" y="230.8638">&#171;include&#187;</text></g><!--link UC02 to UC03--><g class="link" data-entity-1="ent0012" data-entity-2="ent0013" data-link-type="dependency" data-source-line="50" id="lnk30"><path d="M616.98,178.3269 C616.98,162.7669 616.98,148.5669 616.98,133.0369" fill="none" id="UC02-to-UC03" style="stroke:#2C3E50;stroke-width:1;stroke-dasharray:7,7;"/><polygon fill="#2C3E50" points="616.98,127.0369,612.98,136.0369,616.98,132.0369,620.98,136.0369,616.98,127.0369" style="stroke:#2C3E50;stroke-width:1;"/><text fill="#000000" font-family="sans-serif" font-size="13" lengthAdjust="spacing" textLength="63.0068" x="573.98" y="157.3638">&#171;include&#187;</text></g><!--link UC03 to UC04--><g class="link" data-entity-1="ent0013" data-entity-2="ent0014" data-link-type="dependency" data-source-line="51" id="lnk31"><path d="M531.91,116.0269 C459.66,130.7269 373,159.9769 409.31,212.7969 C441.46,259.5769 499.568,277.2758 548.088,284.6458" fill="none" id="UC03-to-UC04" style="stroke:#2C3E50;stroke-width:1;stroke-dasharray:7,7;"/><polygon fill="#2C3E50" points="554.02,285.5469,545.7228,280.2407,549.0767,284.796,544.5214,288.15,554.02,285.5469" style="stroke:#2C3E50;stroke-width:1;"/><text fill="#000000" font-family="sans-serif" font-size="13" lengthAdjust="spacing" textLength="63.0068" x="375.27" y="208.8638">&#171;include&#187;</text></g><!--link UC04 to UC05--><g class="link" data-entity-1="ent0014" data-entity-2="ent0015" data-link-type="dependency" data-source-line="52" id="lnk32"><path d="M557.96,301.4269 C465.92,321.2269 304.94,367.0769 367.81,436.2969 C411.49,484.3869 483.1915,485.3537 540.2315,477.1237" fill="none" id="UC04-to-UC05" style="stroke:#2C3E50;stroke-width:1;stroke-dasharray:7,7;"/><polygon fill="#2C3E50" points="546.17,476.2669,536.691,473.5931,541.2212,476.9809,537.8335,481.5111,546.17,476.2669" style="stroke:#2C3E50;stroke-width:1;"/><text fill="#000000" font-family="sans-serif" font-size="13" lengthAdjust="spacing" textLength="61.1851" x="376.5818" y="417.3638">&#171;extend&#187;</text><text fill="#000000" font-family="sans-serif" font-size="13" lengthAdjust="spacing" textLength="146.8086" x="333.77" y="432.4966">[khi c&#243; ticket ph&#249; h&#7907;p]</text></g><?plantuml-src TLFBRjD05DtFLro51Qj2oAijgY8rQKkxeEeZHKYOXR47UnHx76R63H4W8R5WmQe2X5XKekq2jL8523QjnSeL_s6-X9cnfqcTih4yzvpZS-VUOzudT60pEmJR4H7R5gC0Wpt4F0enufVWm7RwjeTpc657sDGB9WannuxDSKVoF1R5rEr6GSJWnlBSIcDbwHfYn5pC2b9jVgxQcPyWwLwkKhhrvMPrai9ODBmA8a64RAz3ikHD31TxMV8UTZY6hlI3NfPyf1vinkc1WB-lFy3oQXSMrs0L1mCNypxSVx21K82V2X0HCEBv0boYhaeYYf3k22hhtf_lMR9Fm4tFvDVyB7aBGZxtg5S1cqD7MabBTidtqqCAkoGzeR3MqvIrtYIXanuum2-EDRGKgQA1DkFi_8Y2O5doBl-49Ysw8Q66qyC1zkGuD68E1jp2YeerLhmZbDl3pCpBzhZRtBXKH9TxXiermwh02mHcdL3PwLRlMFHUbfmI6AKdCJZP-TTOJUYJliAHRaEnIggQKQdR-X180O7R4AQ_GCXINZ3YMabSjsYFsT8hEOwb3T7BE7QkiQsNb0sBhllP-Ia59prKsi9hdrXKPCaFdP_FnLeLlwHlMlGX3a4Gfuy517h3psAR6dwpn6zPj5XeaFu6Dqk-IP6CpsJRHjigQMVbY4Xw409NuTrDlqYdSJOiEXL3fK6l4Be96uo4DXlbVnH7PhborUry6ULARQhIcAeq4T8fDEVMrUEiCjx6JaJT2MkJph5rkLARgZHGaTknSwdGKbvREB3LRyfzCk3m18iXnbHD4DG8EL9kS4lpwt0N5XO8TOBOnUssWch_X-e5r9Y66WNKr11-BZ1rsssBFkhxH4Rgfqd6m4_FL1oF1e_HFm00?></g></svg>